<?xml version="1.0" encoding="iso-8859-1"?>
<!-- Generator: Adobe Illustrator 28.6.0, SVG Export Plug-In . SVG Version: 9.03 Build 54939)  -->
<svg version="1.1" id="&#x30EC;&#x30A4;&#x30E4;&#x30FC;_1"
	 xmlns="http://www.w3.org/2000/svg" xmlns:xlink="http://www.w3.org/1999/xlink" x="0px" y="0px" viewBox="0 0 3859.258 3210.284"
	 style="enable-background:new 0 0 3859.258 3210.284;" xml:space="preserve">
<g>
	<g>
		<path style="fill:#000001;" d="M2970.934,712.643c54.143-0.004,102.64-21.133,129.685-55.193
			c11.807,1.493,31.081,3.028,60.405,3.028c53.185,0,120.403-4.954,199.789-14.724c143.645-17.68,245.676-41.031,321.098-73.486
			c84.674-36.436,137.703-85.919,162.117-151.279c27.428-73.432,17.494-156.745-27.258-228.575
			c-27.031-43.389-66.317-80.974-113.609-108.695c-51.544-30.211-111.781-48.917-179.037-55.595
			C3338.818,9.725,3112.578,0,2869.865,0c-228.668,0-465.242,8.749-649.064,24.006c-124.259,10.313-228.923,46.104-302.676,103.504
			c-68.099,53.001-108.157,123.251-112.794,197.81c-4.076,65.524,19.765,130.337,67.129,182.501
			c49.576,54.6,122.273,93.225,210.229,111.698c166.566,34.984,659.724,42.879,766.706,44.196
			c27.247,30.907,71.353,48.928,121.522,48.928H2970.934z"/>
		<path style="fill:#FFFFFF;" d="M2223.34,54.6c323.352-26.836,873.279-38.073,1297.75,4.074
			c242.781,24.105,346.375,211.833,294.178,351.573c-43.427,116.262-191.816,172.249-458.206,205.036
			c-205.035,25.235-263.71,9.851-263.71,9.851l-8.423,0.302c-35.703,69.988-175.059,77.687-220.263,7.75
			c-48.535-0.503-600.809-6.987-775.668-43.713C1725.057,513.034,1738.862,94.809,2223.34,54.6z"/>
		<path style="fill:#000001;" d="M2836.365,841.017c1.421,0,2.864-0.018,4.317-0.058c54.221-1.465,80.88-38.697,82.705-72.67
			c1.99-37.049-24.653-78.429-79.423-85.83c-6.847-0.924-13.584-1.394-20.024-1.394c-58.964,0-89.814,38.463-89.814,76.456
			c0,22.513,10.526,44.237,28.879,59.599c18.677,15.634,44.045,23.898,73.354,23.898H2836.365z"/>
		<path style="fill:#FFFFFF;" d="M2839.853,712.883c71.011,9.596,70.166,95.491,0,97.388c-50.018,1.352-75.028-26.376-75.028-52.75
			S2789.835,706.125,2839.853,712.883z"/>
		<path style="fill:#000001;" d="M2692.694,939.57c1.252,0,2.522-0.017,3.805-0.051c49.125-1.328,73.29-35.286,74.954-66.276
			c1.807-33.679-22.229-71.269-71.672-77.95c-6.042-0.816-11.996-1.23-17.695-1.23c-53.274,0-81.147,35.088-81.147,69.749
			c0,20.549,9.571,40.346,26.258,54.313c16.76,14.03,39.408,21.445,65.493,21.445H2692.694z"/>
		<path style="fill:#FFFFFF;" d="M2695.67,825.716c60.601,8.19,59.881,81.495,0,83.114c-42.688,1.153-64.031-22.509-64.031-45.019
			C2631.639,841.304,2652.982,819.948,2695.67,825.716z"/>
	</g>
	<g>
		<path d="M2097.565,407.48l-37.796-2.021c-2.628-0.202-5.053-2.224-5.053-4.851v-0.202l0.809-17.382l-58.412-3.032
			c-7.479-0.404-10.915-5.053-10.915-11.521c0-1.212,0.202-2.425,0.404-3.84l20.818-126.526c0.404-2.425,2.426-4.244,4.851-4.244
			h0.606l39.211,5.861c2.224,0.202,4.244,2.223,4.244,4.447c0,0.404-0.202,0.606-0.202,1.01l-15.563,86.506
			c-0.202,1.011-0.202,1.819-0.202,2.426c0,5.053,3.638,5.457,6.67,5.659l10.914,0.606l2.224-43.658
			c0.202-2.627,2.829-4.648,5.457-4.648h0.404l37.594,2.021c2.628,0.202,4.648,2.223,4.648,4.649v0.404l-2.425,43.657l13.34,0.809
			c2.425,0,4.648,2.223,4.648,4.648v0.404l-1.415,32.945c-0.202,2.425-2.223,4.649-4.851,4.649h-0.404l-13.542-0.606l-1.011,17.18
			c-0.202,2.426-2.223,4.649-4.648,4.649H2097.565z"/>
		<path d="M2158.203,380.194c-11.521-17.382-20.414-37.796-20.414-63.87c0-62.858,39.413-81.656,70.741-81.656
			c29.712,0,59.827,16.776,70.135,47.498c4.245,12.733,6.468,25.871,6.468,38.807c0,33.753-18.999,87.921-71.953,87.921
			C2191.755,408.895,2170.532,398.789,2158.203,380.194z M2234.199,320.771c0-35.775-16.978-40.02-24.254-40.02
			c-8.894,0-22.031,6.468-22.031,34.562c0,0.202,0.809,47.295,23.648,47.295C2226.518,362.61,2234.199,342.398,2234.199,320.771z"/>
		<path d="M2412.874,407.48l-37.796-2.021c-2.628-0.202-5.053-2.224-5.053-4.851v-0.202l0.809-17.382l-58.412-3.032
			c-7.479-0.404-10.915-5.053-10.915-11.521c0-1.212,0.202-2.425,0.404-3.84l20.818-126.526c0.404-2.425,2.426-4.244,4.851-4.244
			h0.606l39.211,5.861c2.224,0.202,4.244,2.223,4.244,4.447c0,0.404-0.202,0.606-0.202,1.01l-15.562,86.506
			c-0.202,1.011-0.202,1.819-0.202,2.426c0,5.053,3.638,5.457,6.67,5.659l10.914,0.606l2.224-43.658
			c0.202-2.627,2.829-4.648,5.457-4.648h0.404l37.594,2.021c2.628,0.202,4.648,2.223,4.648,4.649v0.404l-2.425,43.657l13.34,0.809
			c2.425,0,4.648,2.223,4.648,4.648v0.404l-1.415,32.945c-0.202,2.425-2.223,4.649-4.851,4.649h-0.404l-13.542-0.606l-1.011,17.18
			c-0.202,2.426-2.223,4.649-4.648,4.649H2412.874z"/>
		<path d="M2648.749,404.044c-2.223,0-4.042-2.021-5.255-3.84c-4.244-6.67-44.668-81.857-53.359-92.772
			c-0.809-1.213-1.617-1.617-2.223-1.617c-1.011,0-1.415,0.809-1.415,2.426v0.809l10.308,86.102v0.202
			c0,2.223-2.021,6.266-7.074,6.872l-37.796,4.851h-0.606c-3.031,0-5.457-3.234-5.659-5.861l-8.691-155.024v-0.404
			c0-2.223,1.415-7.074,5.458-7.276l39.413-1.819h0.403c3.032,0,7.074,1.617,8.085,2.627c12.127,12.127,36.987,53.359,55.987,85.496
			c0.605,1.212,1.212,1.617,1.818,1.617c0.809,0,1.213-1.213,1.213-2.83l2.426-82.666c0-2.426,2.223-4.649,4.648-4.649h0.404
			l38.807,2.425c3.233,0.202,4.648,2.425,4.648,4.851c0,5.255-5.457,120.462-8.287,158.056c0,2.627-2.223,4.648-5.053,4.648
			L2648.749,404.044z"/>
		<path d="M2779.317,408.895c-32.945,0-61.849-23.85-61.849-59.423c0-41.636,31.126-63.263,66.699-63.263
			c44.668,0,63.869,34.966,63.869,61.242C2848.037,386.863,2808.017,408.895,2779.317,408.895z M2804.986,347.047
			c0-3.84-0.809-23.446-21.425-23.446c-16.979,0-21.829,14.351-21.829,23.446c0,13.946,10.915,23.244,22.436,23.244
			C2798.518,370.29,2804.986,358.567,2804.986,347.047z"/>
		<path d="M2930.501,401.82c-1.617,3.84-3.436,5.861-6.468,5.861c-0.606,0-1.213,0-1.819-0.202
			c-32.541-6.468-43.859-24.254-44.87-75.39l-15.158-0.808c-2.224-0.202-4.043-2.224-4.043-4.447l2.426-33.552
			c0.202-2.223,2.021-4.042,4.446-4.042l12.936,0.808c0.404-7.68,0.809-15.967,1.415-24.658c0.202-2.425,0.606-6.266,5.861-6.266
			h0.809l38.2,1.819c3.437,0.202,5.053,2.224,5.053,5.66c-0.404,8.489-1.011,17.382-1.616,25.871l13.945,0.808
			c2.224,0,4.043,2.021,4.043,4.447l-2.426,33.552c-0.202,2.021-1.819,3.84-4.042,3.84h-0.404l-13.34-0.606
			c0,18.393,2.426,32.339,11.318,36.179c2.224,1.011,4.648,1.819,4.648,4.042c0,0.404-0.202,1.011-0.404,1.617L2930.501,401.82z"/>
		<path d="M2970.318,402.629c-2.425,0-4.446-2.224-4.446-4.649v-0.404l8.287-157.652c0-2.627,2.223-4.649,5.053-4.649l36.785,2.021
			h0.809l55.785,3.032c2.425,0,4.648,2.223,4.648,4.851v0.404l-2.021,38.2c0,2.426-2.223,4.649-4.851,4.649h-0.404l-48.509-2.627
			l-0.808,15.563l35.37,3.638c2.628,0.404,4.446,2.425,4.446,4.851v0.606l-4.446,33.956c-0.202,2.425-2.426,4.446-5.053,4.446
			h-0.404l-32.339-3.436l-2.83,54.774c-0.202,2.627-2.425,4.649-5.053,4.649L2970.318,402.629z"/>
		<path d="M3150.812,408.895c-32.945,0-61.849-23.85-61.849-59.423c0-41.636,31.126-63.263,66.699-63.263
			c44.668,0,63.869,34.966,63.869,61.242C3219.532,386.863,3179.512,408.895,3150.812,408.895z M3176.481,347.047
			c0-3.84-0.809-23.446-21.425-23.446c-16.978,0-21.829,14.351-21.829,23.446c0,13.946,10.915,23.244,22.436,23.244
			C3170.013,370.29,3176.481,358.567,3176.481,347.047z"/>
		<path d="M3317.964,402.831c-9.702,3.032-19.201,4.649-28.095,4.649c-28.095,0-49.923-15.765-51.742-53.359
			c-0.606-13.138-1.011-38.201-1.213-51.136c0-8.287,2.83-9.904,5.255-10.106c0.202-0.404,31.531-2.627,34.967-2.627
			c4.042,0,5.659,2.021,5.861,4.447c1.213,13.542,1.617,24.456,2.83,48.508c0.809,17.382,6.872,23.446,15.36,23.446
			c4.043,0,8.894-1.415,13.946-3.84l3.639-69.529c0.201-2.425,2.223-4.042,4.446-4.042l40.222,2.223
			c2.425,0,4.042,2.021,4.042,4.447l-5.457,105.101c-0.202,2.425-2.224,4.042-4.446,4.042L3317.964,402.831z"/>
		<path d="M3522.507,357.355c0,11.318,2.628,20.414,10.914,28.094c1.213,1.011,3.234,3.032,3.234,5.255
			c0,1.213-0.606,2.426-2.021,3.436c0,0.404-20.01,14.755-20.01,14.755c-2.021,1.617-4.042,2.223-5.861,2.223
			c-3.638,0-35.977-10.712-35.977-46.689v-6.872c0-21.222-10.309-30.115-25.062-30.924l-3.841,73.369c0,2.021-1.818,3.84-3.84,3.84
			h-0.404l-40.424-2.021c-2.425-0.202-4.042-2.021-4.042-4.447l5.457-105.101c0.202-2.224,2.021-4.042,4.042-4.042h0.404
			l22.638,1.213c7.883-1.617,15.36-2.426,22.637-2.426c41.03,0,72.156,25.063,72.156,63.667V357.355z"/>
		<path d="M3677.126,403.033c-1.616,3.84-3.638,5.862-6.669,5.862c0,0-17.383-1.819-28.701-13.138
			c-11.318,6.266-23.041,9.095-34.158,9.095c-33.754,0-62.656-25.871-62.656-58.412c0-24.658,17.18-59.221,57.199-59.221
			c8.691,0,17.382,1.819,24.658,4.447l3.639-54.167c0.202-3.436,3.436-5.458,7.479-5.458l34.966,0.606
			c5.659,0,7.276,2.627,7.276,5.457v0.606c-0.404,2.627-6.872,86.911-6.872,100.857c0,16.574,2.426,28.903,10.712,32.541
			c2.224,1.011,4.447,2.021,4.447,3.84c0,0.606,0,1.212-0.404,1.819L3677.126,403.033z M3625.182,331.484
			c-2.224-4.042-7.883-6.872-13.946-6.872c-12.127,0-19.808,11.116-19.808,22.435c0,11.318,7.883,21.02,20.818,21.02
			c4.446,0,9.499-1.212,15.158-3.84C3625.99,355.131,3625.182,344.419,3625.182,331.484z"/>
	</g>
	
		<image style="overflow:visible;enable-background:new    ;" width="3077" height="2859" xlink:href="9F37F0C430765B87.png"  transform="matrix(1 0 0 1 0 351.2842)">
	</image>
</g>
</svg>
